# xmcd
#
# Track frame offsets:
#   150
#   18759
#   37967
#   50967
#   71331
#   84582
#   98143
#   122255
#   141305
#   161310
#   181006
#   197697
#   211431
#   231310
#   245076
#
# Disc length: 3462 seconds
#
# Revision: 0
# Processed by: cddbd v1.5.2PL0 Copyright (c) Steve Scherf et al.
# Submitted via: uFREEDB ActiveX Control 1.5
#
DISCID=c60d840f
DTITLE=ivo do rasqueado - ivo do rasqueado
DYEAR=1900
DGENRE=Classical
TTITLE0=ivo do rasqueado 1
TTITLE1=ivo do rasqueado 2
TTITLE2=ivo do rasqueado 3
TTITLE3=ivo do rasqueado 4
TTITLE4=ivo do rasqueado 5
TTITLE5=ivo do rasqueado 6
TTITLE6=ivo do rasqueado 7
TTITLE7=ivo do rasqueado 8
TTITLE8=ivo do rasqueado 9
TTITLE9=ivo do rasqueado 10
TTITLE10=ivo do rasqueado 11
TTITLE11=ivo do rasqueado 12
TTITLE12=ivo do rasqueado 13
TTITLE13=ivo do rasqueado14 
TTITLE14=ivo do rasqueado 15
EXTD=
EXTT0=
EXTT1=
EXTT2=
EXTT3=
EXTT4=
EXTT5=
EXTT6=
EXTT7=
EXTT8=
EXTT9=
EXTT10=
EXTT11=
EXTT12=
EXTT13=
EXTT14=
PLAYORDER=
